HIERARCHY
ROOT hip
{
  OFFSET 5.51535 103.731 -2.80141
  CHANNELS 6 Xposition Yposition Zposition Zrotation Xrotation Yrotation
  JOINT abdomen
  {
    OFFSET 0 -1.186 -1.5018
    CHANNELS 6 Xposition Yposition Zposition Zrotation Xrotation Yrotation
    JOINT abdomen2
    {
      OFFSET 0 9.964 0.2134
      CHANNELS 6 Xposition Yposition Zposition Zrotation Xrotation Yrotation
      JOINT chest
      {
        OFFSET 0 13.134 -3.2573
        CHANNELS 6 Xposition Yposition Zposition Zrotation Xrotation Yrotation
        JOINT neck
        {
          OFFSET 0 20.686 -1.6905
          CHANNELS 6 Xposition Yposition Zposition Zrotation Xrotation Yrotation
          JOINT head
          {
            OFFSET 0 7.23801 -0.1237
            CHANNELS 6 Xposition Yposition Zposition Zrotation Xrotation Yrotation
            End Site
            {
              OFFSET 0 0 0
            }
          }
        }
        JOINT lCollar
        {
          OFFSET 1.7069 20.075 5.0056
          CHANNELS 6 Xposition Yposition Zposition Zrotation Xrotation Yrotation
          JOINT lShldr
          {
            OFFSET 13.6458 -0.0470195 -4.849
            CHANNELS 6 Xposition Yposition Zposition Zrotation Xrotation Yrotation
            JOINT lForeArm
            {
              OFFSET 28.3255 -0.97589 2.2888
              CHANNELS 6 Xposition Yposition Zposition Zrotation Xrotation Yrotation
              JOINT lHand
              {
                OFFSET 22.1583 -0.529998 10.8316
                CHANNELS 6 Xposition Yposition Zposition Zrotation Xrotation Yrotation
                JOINT lThumb1
                {
                  OFFSET 0.786 0.111997 2.5817
                  CHANNELS 6 Xposition Yposition Zposition Zrotation Xrotation Yrotation
                  JOINT lThumb2
                  {
                    OFFSET 0.360097 -0.877999 4.2331
                    CHANNELS 6 Xposition Yposition Zposition Zrotation Xrotation Yrotation
                    JOINT lThumb2_End
                    {
                      OFFSET 1.8127 -1.21601 2.2227
                      CHANNELS 6 Xposition Yposition Zposition Zrotation Xrotation Yrotation
                      End Site
                      {
                        OFFSET 0.0180981 -0.012195 0.0222007
                      }
                    }
                  }
                }
                JOINT lCarpal1
                {
                  OFFSET 0.9571 1.114 1.7695
                  CHANNELS 6 Xposition Yposition Zposition Zrotation Xrotation Yrotation
                  JOINT lIndex1
                  {
                    OFFSET 4.12461 0.486992 4.1451
                    CHANNELS 6 Xposition Yposition Zposition Zrotation Xrotation Yrotation
                    JOINT lIndex2
                    {
                      OFFSET 3.4052 -1.45401 2.7682
                      CHANNELS 6 Xposition Yposition Zposition Zrotation Xrotation Yrotation
                      JOINT lIndex2_End
                      {
                        OFFSET 1.45309 -1.79499 1.2713
                        CHANNELS 6 Xposition Yposition Zposition Zrotation Xrotation Yrotation
                        End Site
                        {
                          OFFSET 0.0144979 -0.0179083 0.0126995
                        }
                      }
                    }
                  }
                  JOINT lMid1
                  {
                    OFFSET 5.6954 0.209987 2.1184
                    CHANNELS 6 Xposition Yposition Zposition Zrotation Xrotation Yrotation
                    JOINT lMid2
                    {
                      OFFSET 3.9766 -1.53999 2.3863
                      CHANNELS 6 Xposition Yposition Zposition Zrotation Xrotation Yrotation
                      JOINT lMid2_End
                      {
                        OFFSET 1.4042 -1.926 1.125
                        CHANNELS 6 Xposition Yposition Zposition Zrotation Xrotation Yrotation
                        End Site
                        {
                          OFFSET 0.013999 -0.0193044 0.011301
                        }
                      }
                    }
                  }
                }
                JOINT lCarpal2
                {
                  OFFSET 2.0956 0.66 -0.3894
                  CHANNELS 6 Xposition Yposition Zposition Zrotation Xrotation Yrotation
                  JOINT lRing1
                  {
                    OFFSET 5.0395 -0.090013 2.4971
                    CHANNELS 6 Xposition Yposition Zposition Zrotation Xrotation Yrotation
                    JOINT lRing2
                    {
                      OFFSET 3.7921 -1.55199 1.4806
                      CHANNELS 6 Xposition Yposition Zposition Zrotation Xrotation Yrotation
                      JOINT lRing2_End
                      {
                        OFFSET 1.4655 -1.808 0.9609
                        CHANNELS 6 Xposition Yposition Zposition Zrotation Xrotation Yrotation
                        End Site
                        {
                          OFFSET 0.0147015 -0.0181014 0.00959957
                        }
                      }
                    }
                  }
                  JOINT lPinky1
                  {
                    OFFSET 4.9141 -1.269 0.3591
                    CHANNELS 6 Xposition Yposition Zposition Zrotation Xrotation Yrotation
                    JOINT lPinky2
                    {
                      OFFSET 3.1477 -1.685 0.8462
                      CHANNELS 6 Xposition Yposition Zposition Zrotation Xrotation Yrotation
                      JOINT lPinky2_End
                      {
                        OFFSET 0.805498 -1.58501 0.795499
                        CHANNELS 6 Xposition Yposition Zposition Zrotation Xrotation Yrotation
                        End Site
                        {
                          OFFSET 0.00809703 -0.0157944 0.00799848
                        }
                      }
                    }
                  }
                }
              }
            }
          }
        }
        JOINT rCollar
        {
          OFFSET -1.7069 20.075 5.0056
          CHANNELS 6 Xposition Yposition Zposition Zrotation Xrotation Yrotation
          JOINT rShldr
          {
            OFFSET -13.6458 -0.0470107 -4.849
            CHANNELS 6 Xposition Yposition Zposition Zrotation Xrotation Yrotation
            JOINT rForeArm
            {
              OFFSET -28.3255 -0.975895 2.2888
              CHANNELS 6 Xposition Yposition Zposition Zrotation Xrotation Yrotation
              JOINT rHand
              {
                OFFSET -22.1583 -0.530007 10.8316
                CHANNELS 6 Xposition Yposition Zposition Zrotation Xrotation Yrotation
                JOINT rThumb1
                {
                  OFFSET -0.785997 0.112005 2.5817
                  CHANNELS 6 Xposition Yposition Zposition Zrotation Xrotation Yrotation
                  JOINT rThumb2
                  {
                    OFFSET -0.360106 -0.877994 4.2331
                    CHANNELS 6 Xposition Yposition Zposition Zrotation Xrotation Yrotation
                    JOINT rThumb2_End
                    {
                      OFFSET -1.8127 -1.216 2.2227
                      CHANNELS 6 Xposition Yposition Zposition Zrotation Xrotation Yrotation
                      End Site
                      {
                        OFFSET -0.0180972 -0.0121973 0.0222005
                      }
                    }
                  }
                }
                JOINT rCarpal1
                {
                  OFFSET -0.9571 1.114 1.7695
                  CHANNELS 6 Xposition Yposition Zposition Zrotation Xrotation Yrotation
                  JOINT rIndex1
                  {
                    OFFSET -4.1246 0.487011 4.1451
                    CHANNELS 6 Xposition Yposition Zposition Zrotation Xrotation Yrotation
                    JOINT rIndex2
                    {
                      OFFSET -3.4052 -1.45401 2.7682
                      CHANNELS 6 Xposition Yposition Zposition Zrotation Xrotation Yrotation
                      JOINT rIndex2_End
                      {
                        OFFSET -1.4531 -1.795 1.2713
                        CHANNELS 6 Xposition Yposition Zposition Zrotation Xrotation Yrotation
                        End Site
                        {
                          OFFSET -0.0145077 -0.0180048 0.0127017
                        }
                      }
                    }
                  }
                  JOINT rMid1
                  {
                    OFFSET -5.6954 0.210002 2.1184
                    CHANNELS 6 Xposition Yposition Zposition Zrotation Xrotation Yrotation
                    JOINT rMid2
                    {
                      OFFSET -3.9766 -1.54 2.3863
                      CHANNELS 6 Xposition Yposition Zposition Zrotation Xrotation Yrotation
                      JOINT rMid2_End
                      {
                        OFFSET -1.4042 -1.926 1.125
                        CHANNELS 6 Xposition Yposition Zposition Zrotation Xrotation Yrotation
                        End Site
                        {
                          OFFSET -0.0139948 -0.0192916 0.0112994
                        }
                      }
                    }
                  }
                }
                JOINT rCarpal2
                {
                  OFFSET -2.0956 0.66 -0.3894
                  CHANNELS 6 Xposition Yposition Zposition Zrotation Xrotation Yrotation
                  JOINT rRing1
                  {
                    OFFSET -5.03951 -0.0899879 2.4971
                    CHANNELS 6 Xposition Yposition Zposition Zrotation Xrotation Yrotation
                    JOINT rRing2
                    {
                      OFFSET -3.7921 -1.55201 1.4806
                      CHANNELS 6 Xposition Yposition Zposition Zrotation Xrotation Yrotation
                      JOINT rRing2_End
                      {
                        OFFSET -1.4655 -1.808 0.960901
                        CHANNELS 6 Xposition Yposition Zposition Zrotation Xrotation Yrotation
                        End Site
                        {
                          OFFSET -0.0146934 -0.0180999 0.00959832
                        }
                      }
                    }
                  }
                  JOINT rPinky1
                  {
                    OFFSET -4.91411 -1.26899 0.359202
                    CHANNELS 6 Xposition Yposition Zposition Zrotation Xrotation Yrotation
                    JOINT rPinky2
                    {
                      OFFSET -3.14769 -1.68501 0.846199
                      CHANNELS 6 Xposition Yposition Zposition Zrotation Xrotation Yrotation
                      JOINT rPinky2_End
                      {
                        OFFSET -0.805498 -1.585 0.7955
                        CHANNELS 6 Xposition Yposition Zposition Zrotation Xrotation Yrotation
                        End Site
                        {
                          OFFSET -0.00810035 -0.0158035 0.00800029
                        }
                      }
                    }
                  }
                }
              }
            }
          }
        }
      }
    }
  }
  JOINT lThigh
  {
    OFFSET 8.367 -8.2066 0.5982
    CHANNELS 6 Xposition Yposition Zposition Zrotation Xrotation Yrotation
    JOINT lShin
    {
      OFFSET 2.1923 -43.463 -0.4932
      CHANNELS 6 Xposition Yposition Zposition Zrotation Xrotation Yrotation
      JOINT lFoot
      {
        OFFSET 0.733301 -45.8593 -2.6451
        CHANNELS 6 Xposition Yposition Zposition Zrotation Xrotation Yrotation
        End Site
        {
          OFFSET 2.6618 -4.2699 12.3931
        }
      }
    }
  }
  JOINT rThigh
  {
    OFFSET -8.367 -8.2066 0.5982
    CHANNELS 6 Xposition Yposition Zposition Zrotation Xrotation Yrotation
    JOINT rShin
    {
      OFFSET -2.1923 -43.463 -0.4931
      CHANNELS 6 Xposition Yposition Zposition Zrotation Xrotation Yrotation
      JOINT rFoot
      {
        OFFSET -0.733299 -45.8593 -2.6451
        CHANNELS 6 Xposition Yposition Zposition Zrotation Xrotation Yrotation
        End Site
        {
          OFFSET -2.6618 -4.2699 12.3931
        }
      }
    }
  }
}
MOTION
Frames:	4
Frame Time:	0.0333333
-576.183 491.425 867.767 12.5997 2.73652 -79.1286 1.53121e-005 -1.186 -1.50183 0.576728 2.74807 -1.47746 -3.66085e-006 9.96401 0.213379 1.22644 5.48018 -2.98795 1.77102e-005 13.134 -3.25733 1.22644 5.48018 -2.98791 -7.68317e-006 20.686 -1.69049 0.217479 -21.2077 -5.27481 -1.3202e-005 7.23801 -0.123672 0.577142 -11.425 -4.13876 1.70693 20.075 5.00559 5.87469 0.437511 12.3342 13.6458 -0.0470052 -4.84895 -76.7527 13.3633 -11.1201 28.3255 -0.975913 2.28884 -21.9024 -4.33101 -60.7018 22.1583 -0.529986 10.8316 3.41621 -6.96839 3.40221 0.786017 0.11199 2.58173 -13.9579 10.1827 23.1123 0.360108 -0.878014 4.23313 11.968 3.95413 22.7625 1.8127 -1.216 2.2227 19.8191 10.1033 39.98 0.9571 1.114 1.7695 -3.97569e-016 0 6.06293e-015 4.12462 0.486969 4.14511 -57.5908 5.76218 45.9074 3.40519 -1.454 2.76819 -46.879 10.6007 23.672 1.4531 -1.79501 1.27127 -46.8517 10.5997 23.6571 5.69541 0.209957 2.11841 -48.828 7.02 34.4815 3.97662 -1.54 2.38629 -44.8147 13.2113 32.8943 1.40419 -1.92598 1.12502 -48.0154 12.3384 25.1687 2.0956 0.66 -0.3894 -3.97569e-016 0 6.06293e-015 5.03951 -0.0900202 2.49712 -49.7644 9.23016 31.2262 3.79211 -1.55202 1.48062 -45.3079 12.7325 26.1764 1.46552 -1.808 0.960902 -48.0634 12.7799 27.9117 4.91411 -1.26903 0.359096 -50.0691 8.0194 30.2693 3.14769 -1.68499 0.846167 -45.2122 14.1498 26.2335 0.805507 -1.585 0.795498 -47.2272 14.2472 27.5222 -1.70689 20.075 5.00559 -1.70971 -3.74832 -4.47094 -13.6458 -0.0470249 -4.84901 76.2655 -1.30522 -12.9806 -28.3255 -0.975901 2.2888 10.1556 -3.21943 57.6892 -22.1583 -0.53004 10.8316 -26.4891 -5.9238 6.66539 -0.786016 0.112024 2.58171 9.64009 6.02086 -4.50367 -0.360097 -0.878008 4.23313 -0.766265 0.691832 -2.3657 -1.81268 -1.21603 2.22268 -0.594226 0.531492 -1.82759 -0.9571 1.114 1.7695 -3.18055e-015 -9.93923e-016 3.47873e-016 -4.12461 0.48704 4.14507 3.12712 2.51004 0.344168 -3.40518 -1.45403 2.76817 4.04925 1.32833 -0.61449 -1.45308 -1.79502 1.27129 4.11383 1.34915 -0.625304 -5.69539 0.209988 2.11839 2.16988 0.0941129 -1.00793 -3.97661 -1.54001 2.38629 5.18496 1.91226 -0.797715 -1.40421 -1.926 1.12501 3.49729 1.30602 -0.52508 -2.0956 0.66 -0.3894 -3.18055e-015 -9.93923e-016 3.47873e-016 -5.03952 -0.089963 2.49709 1.0396 0.516053 -2.88311 -3.7921 -1.55198 1.48059 4.47789 1.82024 -0.877008 -1.46553 -1.808 0.960916 2.82262 1.15688 -0.536802 -4.91409 -1.269 0.359213 1.18487 1.40165 -4.40807 -3.14771 -1.68501 0.846216 3.37844 1.48633 -0.609414 -0.805498 -1.585 0.795473 3.24897 1.43034 -0.584761 8.36699 -8.20659 0.598211 -10.7954 -37.7264 -4.36996 2.19228 -43.463 -0.493203 -1.73307 49.9335 -0.255908 0.733302 -45.8593 -2.64506 12.2474 -20.7338 -2.76502 -8.367 -8.2066 0.598224 2.58901 -49.5079 13.9001 -2.19496 -43.4633 -0.463 74.2214 74.0578 -72.8883 -0.733301 -45.8593 -2.64516 -20.2056 -18.6787 -7.02098 
-579.15 492.442 868.148 12.7366 5.17275 -76.9661 -2.93429e-005 -1.186 -1.50181 1.34823 2.65611 -2.33692 -1.79747e-005 9.96399 0.213428 2.80831 5.25418 -4.74323 1.93236e-008 13.134 -3.25732 2.80832 5.25417 -4.74326 2.39849e-005 20.686 -1.69052 0.20647 -21.9371 -4.39502 2.19782e-005 7.23804 -0.1237 0.90825 -11.7015 -2.15081 1.70689 20.075 5.00562 7.19274 -0.740703 10.8421 13.6458 -0.0470172 -4.849 -77.8076 13.1719 -9.18012 28.3255 -0.975895 2.28882 -23.1593 -4.34963 -60.7408 22.1583 -0.52998 10.8316 -1.71811 -7.25144 0.848216 0.785993 0.112006 2.5817 -11.7155 12.4128 20.1569 0.360111 -0.877978 4.23311 11.2419 3.5545 21.3038 1.81268 -1.21604 2.22269 19.083 9.35355 38.2052 0.9571 1.114 1.7695 7.95139e-016 4.77083e-015 -4.77083e-015 4.1246 0.486972 4.1451 -55.9731 7.46168 46.2533 3.4052 -1.45401 2.76819 -46.2903 10.5966 23.3474 1.45311 -1.795 1.27132 -46.3417 10.5963 23.3759 5.69541 0.209967 2.11842 -44.6531 5.71266 31.7808 3.9766 -1.54001 2.38631 -44.1368 13.1759 32.506 1.40421 -1.92598 1.12501 -45.2647 12.2516 23.5799 2.0956 0.66 -0.3894 7.95139e-016 4.77083e-015 -4.77083e-015 5.03952 -0.0899894 2.49712 -43.9591 6.51411 29.6725 3.79212 -1.552 1.48059 -43.8813 12.676 25.2788 1.46546 -1.808 0.960902 -44.6079 12.7075 25.7356 4.91408 -1.26897 0.359093 -44.1819 4.36277 30.3415 3.14768 -1.685 0.846193 -42.4583 13.946 24.4757 0.805482 -1.585 0.795507 -44.3072 14.0926 25.6545 -1.70692 20.075 5.00561 -2.12184 -3.8659 -5.06387 -13.6458 -0.0469943 -4.84901 73.5339 -2.98753 -15.338 -28.3255 -0.975856 2.28879 8.73203 -0.903767 55.8747 -22.1583 -0.530015 10.8316 -26.3323 -9.78194 7.5918 -0.786 0.112035 2.58168 7.47403 8.3508 -2.56582 -0.360094 -0.878011 4.23309 -0.6077 0.543882 -1.8695 -1.81269 -1.21603 2.2227 -0.237908 0.208641 -0.725864 -0.9571 1.114 1.7695 6.36111e-015 3.97569e-015 -3.97569e-016 -4.1246 0.486994 4.14511 0.476237 3.40652 1.71408 -3.40521 -1.45399 2.76821 2.55933 0.845286 -0.377677 -1.4531 -1.795 1.27132 2.70132 0.891621 -0.400005 -5.69541 0.210011 2.11838 -1.46904 -2.14466 -1.32333 -3.9766 -1.54001 2.38628 5.11991 1.88881 -0.786657 -1.40419 -1.92598 1.12499 1.41123 0.5285 -0.200354 -2.0956 0.66 -0.3894 6.36111e-015 3.97569e-015 -3.97569e-016 -5.03952 -0.0900024 2.49712 -3.90526 -1.42894 -5.23621 -3.79209 -1.55204 1.4806 3.67097 1.49829 -0.708976 -1.4655 -1.80803 0.960901 0.0674496 0.0280057 -0.0122277 -4.9141 -1.269 0.359197 -3.58612 0.378959 -8.61867 -3.14769 -1.68504 0.846215 1.33614 0.5929 -0.230818 -0.805505 -1.58499 0.795494 1.07549 0.456898 -0.176195 8.36699 -8.20661 0.598182 -9.23715 -34.3933 -7.07709 2.19231 -43.463 -0.493184 -1.61828 47.0764 -0.0760486 0.733359 -45.8593 -2.64508 11.9776 -20.7298 -2.88411 -8.36698 -8.20658 0.598212 4.91405 -57.4739 14.7152 -2.1923 -43.463 -0.493115 81.0892 73.9695 -80.4819 -0.733267 -45.8594 -2.64508 -19.2645 -25.1021 -9.04677 
-582.66 496.102 868.665 13.3073 8.38831 -75.0476 2.95178e-005 -1.18601 -1.50181 2.23031 2.28691 -3.08135 -6.43698e-006 9.96398 0.213379 4.58571 4.44874 -6.25659 2.53243e-005 13.134 -3.25733 4.58571 4.44873 -6.25659 -7.58277e-006 20.686 -1.69048 0.194306 -21.5302 -4.14321 -2.65204e-006 7.23802 -0.123676 0.974521 -11.7217 -0.67276 1.70688 20.075 5.00558 8.5097 -2.03003 9.26102 13.6458 -0.0470052 -4.84903 -79.4728 12.9998 -5.98606 28.3255 -0.975874 2.28878 -24.5473 -3.54605 -60.605 22.1583 -0.529999 10.8316 -7.27464 -6.72605 -3.30471 0.78601 0.111987 2.5817 -8.92163 14.6985 16.5962 0.360083 -0.877991 4.23307 10.3936 3.11726 19.6183 1.81271 -1.21602 2.22268 18.2084 8.51831 36.1533 0.9571 1.114 1.7695 2.97939e-031 1.59028e-015 -1.07344e-014 4.1246 0.486997 4.14511 -54.0742 9.39674 46.6206 3.40519 -1.45402 2.76819 -45.6215 10.588 22.9787 1.4531 -1.79498 1.27129 -45.7541 10.5892 23.052 5.69542 0.209988 2.1184 -39.9915 3.97278 28.6761 3.97661 -1.54 2.38632 -43.3564 13.1295 32.0593 1.40419 -1.92599 1.12498 -42.1028 12.0595 21.7589 2.0956 0.66 -0.3894 2.97939e-031 1.59028e-015 -1.07344e-014 5.03951 -0.0900025 2.49712 -37.4678 2.98366 27.9221 3.7921 -1.55199 1.48061 -42.2398 12.5838 24.2473 1.4655 -1.80803 0.960883 -40.6375 12.466 23.242 4.91411 -1.26899 0.359103 -37.4455 -0.165081 30.4912 3.1477 -1.68502 0.846191 -39.2995 13.6103 22.4684 0.805491 -1.58499 0.795511 -40.9293 13.7978 23.502 -1.70692 20.075 5.00559 -2.57309 -3.98188 -5.76692 -13.6458 -0.047034 -4.84902 70.5852 -4.539 -18.1761 -28.3255 -0.975923 2.28883 7.28366 1.67868 53.9604 -22.1583 -0.530003 10.8316 -26.2667 -13.898 8.78573 -0.786004 0.111998 2.58172 4.82855 10.9033 -0.197858 -0.360134 -0.877988 4.23311 -0.405331 0.358743 -1.24132 -1.81271 -1.21599 2.22268 0.174569 -0.149927 0.528894 -0.9571 1.114 1.7695 3.18055e-015 -1.59028e-015 -3.18055e-015 -4.12459 0.487001 4.14507 -2.653 4.39221 3.26208 -3.4052 -1.45401 2.76821 0.845567 0.281393 -0.120567 -1.45308 -1.795 1.27129 1.07642 0.357835 -0.154519 -5.69539 0.210005 2.11837 -5.6514 -4.78468 -1.79035 -3.97658 -1.53999 2.3863 5.05484 1.86534 -0.775656 -1.4042 -1.92597 1.12498 -0.976438 -0.368991 0.131019 -2.0956 0.66 -0.3894 3.18055e-015 -1.59028e-015 -3.18055e-015 -5.03953 -0.0899607 2.49709 -9.68892 -3.75085 -8.13629 -3.79207 -1.55203 1.48061 2.75077 1.12779 -0.522671 -1.46549 -1.80799 0.960882 -3.09396 -1.30173 0.524064 -4.91411 -1.26896 0.3592 -9.23517 -0.820554 -13.5992 -3.14771 -1.68501 0.846191 -1.00901 -0.452166 0.165481 -0.805526 -1.58501 0.795526 -1.4654 -0.65756 0.237479 8.36697 -8.20661 0.598207 -6.23213 -29.8317 -9.82773 2.19225 -43.463 -0.493207 -2.02881 41.3049 0.552662 0.733296 -45.8593 -2.64514 10.4563 -11.3693 -3.04534 -8.36697 -8.2066 0.598197 7.9506 -63.9104 14.5595 -2.19231 -43.463 -0.493116 65.7062 74.0168 -64.8649 -0.733288 -45.8593 -2.64512 -14.6478 -27.9466 -8.9958 
-586.401 500.976 869.3 13.6505 11.5659 -73.4488 1.16121e-006 -1.18599 -1.50182 3.05073 1.81348 -3.67294 -3.73661e-006 9.964 0.21341 6.21568 3.42515 -7.44232 6.07672e-006 13.134 -3.25728 6.21567 3.42515 -7.44225 -9.6241e-006 20.686 -1.69051 0.264039 -20.12 -4.04677 -1.01106e-005 7.23802 -0.123706 1.08091 -11.5716 -0.126129 1.70689 20.075 5.00557 9.54018 -3.12981 7.94037 13.6458 -0.0470012 -4.84898 -81.4934 12.9592 -2.28947 28.3255 -0.975915 2.28877 -25.4704 -2.36129 -60.4028 22.1583 -0.529975 10.8316 -11.6858 -5.58057 -8.43882 0.786008 0.111975 2.58168 -5.98673 16.6347 12.9751 0.360102 -0.878006 4.23308 9.55641 2.71589 17.9726 1.81269 -1.21604 2.22269 17.3307 7.73596 34.149 0.9571 1.114 1.7695 -3.18055e-015 1.59028e-015 5.1684e-015 4.12462 0.487006 4.14511 -52.1879 11.2552 46.9456 3.40521 -1.45401 2.76819 -44.9527 10.5751 22.6101 1.45307 -1.79499 1.2713 -45.1827 10.5792 22.737 5.69539 0.210007 2.1184 -35.6185 2.05065 25.6732 3.97661 -1.54001 2.3863 -42.5975 13.0787 31.6254 1.40422 -1.92599 1.125 -39.0361 11.7788 20.0014 2.0956 0.66 -0.3894 -3.18055e-015 1.59028e-015 5.1684e-015 5.03953 -0.0900297 2.4971 -31.3701 -0.850248 26.2927 3.79212 -1.55199 1.48061 -40.645 12.4665 23.2469 1.46553 -1.80801 0.960886 -36.7918 12.07 20.8399 4.91408 -1.26899 0.359082 -30.9343 -4.88349 30.759 3.14768 -1.685 0.846192 -36.2438 13.1813 20.5392 0.805484 -1.585 0.795506 -37.7111 13.4008 21.4632 -1.7069 20.075 5.00561 -2.96899 -4.06612 -6.48351 -13.6458 -0.0470395 -4.84901 67.8793 -5.69166 -20.9795 -28.3255 -0.975926 2.28881 6.13394 4.00625 52.427 -22.1583 -0.530015 10.8316 -26.4874 -17.4047 10.0216 -0.785989 0.111993 2.5817 2.08385 13.2269 2.25145 -0.36012 -0.877986 4.23308 -0.176426 0.154135 -0.53737 -1.81269 -1.21602 2.22273 0.594823 -0.499373 1.78626 -0.9571 1.114 1.7695 -3.18055e-015 2.38542e-015 3.97569e-015 -4.12461 0.487002 4.14513 -5.77256 5.30319 4.73616 -3.40519 -1.45402 2.76819 -0.819715 -0.274486 0.113316 -1.45312 -1.79497 1.2713 -0.502961 -0.168205 0.0697688 -5.69542 0.209993 2.11841 -9.72328 -7.40871 -2.35573 -3.97661 -1.53996 2.38629 4.98982 1.84185 -0.764664 -1.40421 -1.92599 1.12498 -3.2955 -1.25488 0.417395 -2.0956 0.66 -0.3894 -3.18055e-015 2.38542e-015 3.97569e-015 -5.0395 -0.089991 2.49711 -15.4246 -6.0657 -11.1701 -3.79209 -1.55202 1.48062 1.85669 0.764489 -0.347144 -1.46549 -1.80804 0.960903 -6.16073 -2.62217 0.975135 -4.91413 -1.26898 0.359193 -14.8926 -1.9668 -18.589 -3.14767 -1.685 0.846183 -3.28487 -1.48391 0.509886 -0.805501 -1.58502 0.795507 -3.91032 -1.75588 0.591319 8.36699 -8.20659 0.598196 -2.9228 -27.1243 -12.5641 2.19234 -43.463 -0.493218 -2.98252 40.4906 2.38006 0.733332 -45.8593 -2.64512 8.15986 1.90609 -3.14787 -8.36698 -8.2066 0.598192 10.9021 -60.2553 13.2476 -2.19226 -43.463 -0.493112 30.7072 62.3089 -28.571 -0.733322 -45.8593 -2.64505 -9.55611 -26.4337 -10.791 
